HIERARCHY
ROOT SpineBase
{
  OFFSET 0.000000 0.000000 0.000000
  CHANNELS 6 Xposition Yposition Zposition Zrotation Xrotation Yrotation
  JOINT SpineMid
  {
    OFFSET 0.000000 31.404378 0.000000
    CHANNELS 3 Zrotation Xrotation Yrotation
    JOINT SpineShoulder
    {
      OFFSET -0.162588 23.286454 -0.678085
      CHANNELS 3 Zrotation Xrotation Yrotation
      JOINT Neck
      {
        OFFSET -0.056453 7.693962 -0.472144
        CHANNELS 3 Zrotation Xrotation Yrotation
        JOINT Head
        {
          OFFSET -4.577178 12.987813 0.126389
          CHANNELS 3 Zrotation Xrotation Yrotation
          End Site
          {
            OFFSET 0 0 0
          }
        }
      }
      JOINT ShoulderLeft
      {
        OFFSET -17.176657 -5.889736 7.641165
        CHANNELS 3 Zrotation Xrotation Yrotation
        JOINT ElbowLeft
        {
          OFFSET -3.344669 -28.921635 1.553862
          CHANNELS 3 Zrotation Xrotation Yrotation
          JOINT WristLeft
          {
            OFFSET -1.487241 -20.270622 -3.772794
            CHANNELS 3 Zrotation Xrotation Yrotation
            JOINT HandLeft
            {
              OFFSET -2.939468 -7.624177 -2.222495
              CHANNELS 3 Zrotation Xrotation Yrotation
              JOINT HandTipLeft
              {
                OFFSET 0.148228 -7.603411 -0.277146
                CHANNELS 3 Zrotation Xrotation Yrotation
                End Site
                {
                  OFFSET 0 0 0
                }
              }
              JOINT ThumbLeft
              {
                OFFSET 2.645134 -1.745220 0.064126
                CHANNELS 3 Zrotation Xrotation Yrotation
                End Site
                {
                  OFFSET 0 0 0
                }
              }
            }
          }
        }
      }
      JOINT ShoulderRight
      {
        OFFSET 13.631372 -3.849877 -7.496118
        CHANNELS 3 Zrotation Xrotation Yrotation
        JOINT ElbowRight
        {
          OFFSET 9.497344 -27.153402 -1.847206
          CHANNELS 3 Zrotation Xrotation Yrotation
          JOINT WristRight
          {
            OFFSET 1.459579 -21.063244 -7.207932
            CHANNELS 3 Zrotation Xrotation Yrotation
            JOINT HandRight
            {
              OFFSET -1.591221 -6.324795 -1.150490
              CHANNELS 3 Zrotation Xrotation Yrotation
              JOINT HandTipRight
              {
                OFFSET -0.568668 -7.612171 -0.694913
                CHANNELS 3 Zrotation Xrotation Yrotation
                End Site
                {
                  OFFSET 0 0 0
                }
              }
              JOINT ThumbRight
              {
                OFFSET -2.988535 -0.935369 -1.725207
                CHANNELS 3 Zrotation Xrotation Yrotation
                End Site
                {
                  OFFSET 0 0 0
                }
              }
            }
          }
        }
      }
    }
  }
  JOINT HipLeft
  {
    OFFSET -6.015926 0.055362 -0.629698
    CHANNELS 3 Zrotation Xrotation Yrotation
    JOINT KneeLeft
    {
      OFFSET 1.154017 -35.537083 4.685165
      CHANNELS 3 Zrotation Xrotation Yrotation
      JOINT AnkleLeft
      {
        OFFSET 12.802183 -38.142158 9.243103
        CHANNELS 3 Zrotation Xrotation Yrotation
        JOINT FootLeft
        {
          OFFSET -1.712824 -7.887436 -6.244737
          CHANNELS 3 Zrotation Xrotation Yrotation
          End Site
          {
            OFFSET 0 0 0
          }
        }
      }
    }
  }
  JOINT HipRight
  {
    OFFSET 6.676524 1.281173 -5.774373
    CHANNELS 3 Zrotation Xrotation Yrotation
    JOINT KneeRight
    {
      OFFSET 5.823383 -36.177697 -9.249798
      CHANNELS 3 Zrotation Xrotation Yrotation
      JOINT AnkleRight
      {
        OFFSET 7.252579 -36.360448 9.422585
        CHANNELS 3 Zrotation Xrotation Yrotation
        JOINT FootRight
        {
          OFFSET -4.289763 -4.078118 -12.248782
          CHANNELS 3 Zrotation Xrotation Yrotation
          End Site
          {
            OFFSET 0 0 0
          }
        }
      }
    }
  }
}
MOTION
Frames: 9
Frame Time: 0.033333
-36.551625 83.028608 340.336076 -1.962894 0.878656 31.043259 -0.702260 0.252100 -31.108161 -0.316113 -0.289027 -0.117858 4.429347 0.774361 0.597447 0.000000 0.000000 0.000000 0.695275 -5.401123 0.521936 1.358035 -1.467761 0.136901 16.750948 -9.544950 1.316640 -22.035777 16.358624 2.587822 0.000000 0.000000 0.000000 0.000000 0.000000 0.000000 -5.028229 17.530471 8.392445 -66.457013 -14.264392 -2.470605 -25.349663 -12.552531 -14.949210 5.557666 25.833529 3.807266 0.000000 0.000000 0.000000 0.000000 0.000000 0.000000 1.229287 -1.764658 -31.009273 1.251270 1.409358 0.760380 -5.107638 -1.394873 2.144747 0.000000 0.000000 0.000000 2.603672 -4.093827 -31.753892 -0.938718 0.895508 1.112369 -3.249541 -0.644213 6.259354 0.000000 0.000000 0.000000
-36.561065 83.164578 340.343835 -2.097088 0.880074 32.077305 -0.692746 0.308890 -32.144612 -0.400464 -0.274366 -0.128747 3.712742 1.149532 0.778403 0.000000 0.000000 0.000000 0.902610 -6.380748 0.620435 0.362943 -0.644760 0.276258 17.947843 -9.021940 0.676604 -22.585632 16.365762 2.900733 0.000000 0.000000 0.000000 0.000000 0.000000 0.000000 -8.601498 18.187477 9.690908 -70.715475 -15.340921 -4.129844 -23.715874 -9.920491 -14.674556 2.867226 25.266750 6.096068 0.000000 0.000000 0.000000 0.000000 0.000000 0.000000 0.486936 -2.055739 -32.165788 1.938535 2.069557 0.880365 -4.878084 -3.267151 2.202574 0.000000 0.000000 0.000000 2.422251 -4.249622 -32.777177 -0.579116 1.011717 1.130242 -3.604524 -0.753148 6.877536 0.000000 0.000000 0.000000
-36.674353 83.297821 340.366431 -2.352606 0.857629 33.193388 -0.622387 0.325024 -33.264045 -0.431711 -0.262378 -0.137606 2.878697 1.670180 1.009657 0.000000 0.000000 0.000000 1.296951 -7.254648 0.734890 -0.866869 0.167013 0.462803 19.705617 -9.126541 0.216204 -23.256322 16.985437 3.226317 0.000000 0.000000 0.000000 0.000000 0.000000 0.000000 -11.741351 18.466473 10.749898 -74.345761 -16.085936 -5.437708 -21.483309 -8.055487 -14.708132 -1.169273 25.748410 10.039156 0.000000 0.000000 0.000000 0.000000 0.000000 0.000000 0.610415 -2.132872 -33.289777 2.114129 2.227358 0.965453 -4.655570 -4.641467 2.107295 0.000000 0.000000 0.000000 2.399390 -4.510613 -33.900118 -0.244434 1.138845 1.182142 -4.021183 -0.867904 7.528347 0.000000 0.000000 0.000000
-36.736436 83.442015 340.351687 -2.548286 0.858636 34.655023 -0.587146 0.332037 -34.728855 -0.444013 -0.270474 -0.144662 2.056568 2.233804 1.252900 0.000000 0.000000 0.000000 1.747884 -7.995058 0.852402 -2.250518 0.915610 0.700932 22.402809 -9.490488 -0.392904 -26.224653 16.119534 4.221137 0.000000 0.000000 0.000000 0.000000 0.000000 0.000000 -14.380219 18.501923 11.557655 -78.101505 -16.493906 -6.281608 -19.447587 -5.853944 -14.378888 -5.154333 25.902549 14.330193 0.000000 0.000000 0.000000 0.000000 0.000000 0.000000 0.404362 -2.155520 -34.803674 2.591063 2.548819 1.113638 -5.212188 -6.369041 2.554881 0.000000 0.000000 0.000000 2.164389 -4.817758 -35.378625 0.197654 1.404477 1.245865 -4.489519 -1.037256 8.208884 0.000000 0.000000 0.000000
-36.783568 83.606142 340.299249 -2.755278 0.865737 36.148318 -0.552001 0.329610 -36.225477 -0.456200 -0.287832 -0.152347 1.618102 2.800365 1.492303 0.000000 0.000000 0.000000 2.212449 -8.373280 0.939374 -3.198984 1.439544 0.861034 24.974408 -10.756511 -0.413002 -29.025232 15.435853 5.067973 0.000000 0.000000 0.000000 0.000000 0.000000 0.000000 -16.465158 18.208863 12.045749 -80.743119 -16.631607 -6.338588 -17.745271 -4.312707 -14.439623 -5.276231 26.171839 15.797397 0.000000 0.000000 0.000000 0.000000 0.000000 0.000000 0.045907 -2.211325 -36.374033 3.232977 3.032008 1.298162 -4.407182 -6.664875 1.625303 0.000000 0.000000 0.000000 1.873765 -5.184245 -36.905069 0.603075 1.743835 1.307163 -4.932622 -1.229668 8.964879 0.000000 0.000000 0.000000
-36.808964 83.742009 340.212350 -2.927891 0.893566 37.446599 -0.538523 0.318585 -37.526707 -0.462642 -0.299231 -0.158689 1.249057 3.295468 1.709839 0.000000 0.000000 0.000000 2.188555 -8.414678 0.929630 -3.343464 1.512922 0.944169 27.597272 -12.417019 -0.123933 -32.488602 16.132164 6.261703 0.000000 0.000000 0.000000 0.000000 0.000000 0.000000 -17.827376 17.719493 12.207750 -82.239918 -16.469771 -5.517491 -15.927709 -2.421493 -14.066188 -3.371821 25.492765 14.539276 0.000000 0.000000 0.000000 0.000000 0.000000 0.000000 -0.450649 -2.314421 -37.765564 3.922241 3.680620 1.497634 -3.014269 -4.867898 -0.196298 0.000000 0.000000 0.000000 1.489387 -5.538763 -38.241510 1.047244 2.120263 1.359104 -5.363151 -1.405338 9.668123 0.000000 0.000000 0.000000
-36.821963 83.857043 340.109294 -3.069526 0.919227 38.488642 -0.527706 0.303166 -38.571076 -0.446556 -0.319002 -0.162699 1.021367 3.747774 1.899626 0.000000 0.000000 0.000000 1.979730 -8.351962 0.890120 -2.920670 1.489343 0.910739 29.698486 -14.486574 0.705302 -32.818425 16.641689 6.365197 0.000000 0.000000 0.000000 0.000000 0.000000 0.000000 -19.238582 17.425468 12.467621 -83.801478 -16.688603 -5.588955 -14.349244 -1.752223 -14.326857 -4.275789 26.318711 16.708523 0.000000 0.000000 0.000000 0.000000 0.000000 0.000000 -0.975634 -2.440159 -38.902698 4.597916 4.300110 1.661330 -2.399804 -4.489418 -1.117120 0.000000 0.000000 0.000000 1.050740 -5.851972 -39.324705 1.513429 2.543804 1.401667 -5.750994 -1.570549 10.235758 0.000000 0.000000 0.000000
-36.839675 83.945301 340.022860 -3.199066 0.920645 39.306222 -0.514207 0.307393 -39.391019 -0.431495 -0.337572 -0.166687 0.905750 4.073134 2.036798 0.000000 0.000000 0.000000 2.030084 -8.389115 0.894845 -2.770531 1.691981 0.877557 31.757836 -17.971688 2.743528 -33.177711 19.600178 6.418085 0.000000 0.000000 0.000000 0.000000 0.000000 0.000000 -20.354935 17.095484 12.618411 -84.459422 -17.071047 -5.816722 -14.811505 -1.647647 -14.351929 -2.022534 26.231227 15.324926 0.000000 0.000000 0.000000 0.000000 0.000000 0.000000 -1.364382 -2.543320 -39.795298 5.032557 4.903197 1.800286 0.815366 -0.230949 -4.671152 0.000000 0.000000 0.000000 0.683369 -6.076270 -40.173965 1.927322 2.904557 1.426748 -6.075064 -1.722897 10.724089 0.000000 0.000000 0.000000
-36.839228 84.005932 339.946704 -3.287630 0.908871 39.826394 -0.502343 0.321475 -39.912959 -0.413960 -0.352659 -0.169203 0.841790 4.265582 2.117308 0.000000 0.000000 0.000000 2.066188 -8.365762 0.894190 -2.783728 1.486218 0.896230 33.507912 -19.019590 3.150757 -33.471854 23.726745 6.688111 0.000000 0.000000 0.000000 0.000000 0.000000 0.000000 -21.022735 16.752462 12.618408 -84.156001 -17.391692 -5.809046 -14.022888 -0.512496 -13.223880 -2.597481 25.513292 15.289575 0.000000 0.000000 0.000000 0.000000 0.000000 0.000000 -1.602648 -2.609364 -40.363640 5.250438 5.401353 1.910010 2.411455 2.800242 -6.670032 0.000000 0.000000 0.000000 0.363440 -6.205754 -40.713645 2.281497 3.208717 1.431860 -6.290212 -1.824806 10.992586 0.000000 0.000000 0.000000
